<svg id="Layer_1" enable-background="new 0 0 100 100" height="512" viewBox="0 0 100 100" width="512" xmlns="http://www.w3.org/2000/svg"><g id="_x30_1._Facebook"><path id="Icon_11_" d="m40.4 55.2c-.3 0-6.9 0-9.9 0-1.6 0-2.1-.6-2.1-2.1 0-4 0-8.1 0-12.1 0-1.6.6-2.1 2.1-2.1h9.9c0-.3 0-6.1 0-8.8 0-4 .7-7.8 2.7-11.3 2.1-3.6 5.1-6 8.9-7.4 2.5-.9 5-1.3 7.7-1.3h9.8c1.4 0 2 .6 2 2v11.4c0 1.4-.6 2-2 2-2.7 0-5.4 0-8.1.1-2.7 0-4.1 1.3-4.1 4.1-.1 3 0 5.9 0 9h11.6c1.6 0 2.2.6 2.2 2.2v12.1c0 1.6-.5 2.1-2.2 2.1-3.6 0-11.3 0-11.6 0v32.6c0 1.7-.5 2.3-2.3 2.3-4.2 0-8.3 0-12.5 0-1.5 0-2.1-.6-2.1-2.1 0-10.5 0-32.4 0-32.7z"/></g></svg>